<?xml version="1.0" encoding="UTF-8" standalone="no"?>
<!DOCTYPE svg PUBLIC "-//W3C//DTD SVG 1.1//EN" "http://www.w3.org/Graphics/SVG/1.1/DTD/svg11.dtd">
<svg width="100%" height="100%" viewBox="0 0 512 512" version="1.1" xmlns="http://www.w3.org/2000/svg" xmlns:xlink="http://www.w3.org/1999/xlink" xml:space="preserve" xmlns:serif="http://www.serif.com/" style="fill-rule:evenodd;clip-rule:evenodd;stroke-linecap:round;stroke-linejoin:round;stroke-miterlimit:1.5;">
    <g id="Bevel" transform="matrix(1.1261,0,0,1.16364,-20.8108,-15.8204)">
        <path d="M473.147,101.596C473.147,53.027 432.401,13.596 382.214,13.596L109.414,13.596C59.226,13.596 18.48,53.027 18.48,101.596L18.48,365.596C18.48,414.164 59.226,453.596 109.414,453.596L382.214,453.596C432.401,453.596 473.147,414.164 473.147,365.596L473.147,101.596Z" style="fill:rgb(0,35,0);"/>
    </g>
    <path id="Waveform" d="M-0.5,256C-0.5,256 0.802,118.047 5.65,118.096C10.466,118.144 10.818,389.494 20.984,389.429C29.706,389.373 32.265,157.394 51.984,157.762C67.808,158.058 79.182,353.002 93.317,353.096C106.154,353.181 121.796,218.516 144.984,218.096C159.76,217.828 178.53,274.343 197.984,274.096C212.378,273.913 235.889,241.004 255.317,241.429C270.566,241.762 294.685,258.768 313.477,258.096C330.063,257.502 353.842,250.501 367.81,250.096C380.09,249.739 410.832,257.001 427.166,256.463C440.383,256.028 471.895,253.66 481.772,253.376C491.332,253.102 500.877,254.3 510.429,254.762" style="fill:none;stroke:rgb(97,187,70);stroke-width:16.67px;"/>
    <g id="Stars">
        <g transform="matrix(0.724077,-0.724077,0.724077,0.724077,-15.9486,186.167)">
            <path d="M223.359,79.494L238.22,90.291L230.789,100.517L242.812,104.423L237.136,121.893L225.113,117.987L225.113,130.627L206.745,130.627L206.745,117.987L194.723,121.893L189.047,104.423L201.069,100.517L193.639,90.291L208.499,79.494L215.929,89.721L223.359,79.494Z" style="fill:rgb(97,187,70);"/>
        </g>
        <g transform="matrix(0.265031,-0.989108,0.989108,0.265031,214.778,593.792)">
            <path d="M223.359,79.494L238.22,90.291L230.789,100.517L242.812,104.423L237.136,121.893L225.113,117.987L225.113,130.627L206.745,130.627L206.745,117.987L194.723,121.893L189.047,104.423L201.069,100.517L193.639,90.291L208.499,79.494L215.929,89.721L223.359,79.494Z" style="fill:rgb(97,187,70);"/>
        </g>
    </g>
</svg>
